<svg xmlns="http://www.w3.org/2000/svg" viewBox="0 0 400 400" width="48" height="48">
  <rect fill="#3178c6" width="400" height="400" rx="40"/>
  <path d="M231 270v30.5c5 2.5 10.8 4.4 17.5 5.7 6.7 1.2 13.8 1.8 21.3 1.8 7.2 0 14-0.6 20.5-1.9 6.5-1.3 12.2-3.5 17.1-6.5 4.9-3.1 8.8-7.1 11.7-12.2 2.9-5 4.3-11.2 4.3-18.5 0-5.2-0.8-9.8-2.4-13.7-1.6-4-3.9-7.5-6.8-10.5-3-3.1-6.5-5.9-10.6-8.4-4.1-2.5-8.6-5-13.5-7.3-3.6-1.7-6.9-3.3-9.8-4.8-2.9-1.5-5.4-3.1-7.4-4.6-2-1.6-3.6-3.2-4.6-5-1-1.8-1.6-3.8-1.6-6.1 0-2.1 0.5-4 1.4-5.6 0.9-1.6 2.3-3 4.1-4.1 1.8-1.1 3.9-2 6.5-2.6 2.6-0.6 5.5-0.9 8.7-0.9 2.3 0 4.7 0.2 7.2 0.5 2.6 0.4 5.1 0.9 7.6 1.7 2.5 0.8 4.9 1.7 7.2 2.9 2.3 1.2 4.4 2.5 6.2 4v-28.4c-3.8-1.5-8-2.6-12.6-3.3-4.6-0.7-9.9-1-15.9-1-7.2 0-13.9 0.8-20.2 2.4-6.3 1.6-11.9 4.1-16.6 7.4-4.8 3.3-8.5 7.5-11.2 12.5-2.7 5-4.1 10.9-4.1 17.6 0 8.6 2.4 15.8 7.1 21.8 4.7 5.9 12 10.9 21.7 14.9 3.9 1.6 7.5 3.2 10.8 4.7 3.3 1.5 6.2 3.1 8.6 4.7 2.4 1.6 4.3 3.4 5.7 5.3 1.4 1.9 2.1 4.1 2.1 6.6 0 2-0.4 3.8-1.3 5.4-0.9 1.6-2.2 3-3.9 4.1-1.8 1.1-4 2-6.6 2.6-2.6 0.6-5.6 0.9-9 0.9-5.9 0-11.7-1-17.5-3.1-5.8-2-11.2-5.1-16.1-9.2zm-68-94v24h42v128h30V200h42v-24z" fill="#fff"/>
</svg>
